<?xml version="1.0" encoding="UTF-8"?>
<svg xmlns="http://www.w3.org/2000/svg" xmlns:xlink="http://www.w3.org/1999/xlink" width="24px" height="24px" viewBox="0 0 24 24" version="1.1">
<g id="surface1">
<path style=" stroke:none;fill-rule:nonzero;fill:rgb(100%,100%,100%);fill-opacity:1;" d="M 13.046875 4.632812 C 13.273438 4.867188 13.417969 5.152344 13.574219 5.433594 C 13.605469 5.492188 13.640625 5.550781 13.671875 5.609375 C 13.722656 5.699219 13.773438 5.789062 13.824219 5.878906 C 13.976562 6.15625 14.136719 6.429688 14.296875 6.703125 C 14.535156 7.109375 14.769531 7.515625 15 7.921875 C 15.257812 8.378906 15.523438 8.832031 15.785156 9.285156 C 16.074219 9.777344 16.359375 10.273438 16.644531 10.769531 C 16.792969 11.023438 16.9375 11.277344 17.085938 11.53125 C 17.144531 11.632812 17.203125 11.734375 17.261719 11.835938 C 17.289062 11.886719 17.320312 11.9375 17.351562 11.988281 C 17.90625 12.953125 18.460938 13.917969 19.019531 14.882812 C 19.046875 14.933594 19.078125 14.984375 19.109375 15.035156 C 19.164062 15.136719 19.222656 15.238281 19.28125 15.339844 C 19.417969 15.574219 19.554688 15.808594 19.691406 16.042969 C 19.742188 16.128906 19.789062 16.210938 19.835938 16.292969 C 19.898438 16.394531 19.957031 16.5 20.019531 16.601562 C 20.34375 17.164062 20.5625 17.65625 20.394531 18.3125 C 20.234375 18.71875 19.902344 19 19.515625 19.179688 C 19.316406 19.25 19.128906 19.273438 18.921875 19.273438 C 18.871094 19.273438 18.820312 19.273438 18.769531 19.273438 C 18.6875 19.273438 18.6875 19.273438 18.601562 19.273438 C 18.542969 19.273438 18.484375 19.273438 18.425781 19.273438 C 18.261719 19.273438 18.101562 19.273438 17.9375 19.273438 C 17.765625 19.273438 17.589844 19.273438 17.414062 19.273438 C 17.03125 19.273438 16.648438 19.273438 16.265625 19.273438 C 16.027344 19.273438 15.789062 19.273438 15.550781 19.277344 C 14.890625 19.277344 14.226562 19.277344 13.566406 19.277344 C 13.503906 19.277344 13.503906 19.277344 13.4375 19.277344 C 13.375 19.277344 13.375 19.277344 13.308594 19.277344 C 13.222656 19.277344 13.136719 19.277344 13.050781 19.277344 C 12.988281 19.277344 12.988281 19.277344 12.921875 19.277344 C 12.230469 19.277344 11.539062 19.277344 10.851562 19.277344 C 10.140625 19.28125 9.429688 19.28125 8.722656 19.28125 C 8.324219 19.28125 7.925781 19.28125 7.527344 19.28125 C 7.1875 19.28125 6.847656 19.28125 6.507812 19.28125 C 6.335938 19.28125 6.164062 19.28125 5.992188 19.28125 C 5.804688 19.285156 5.613281 19.285156 5.425781 19.28125 C 5.347656 19.285156 5.347656 19.285156 5.261719 19.285156 C 4.769531 19.28125 4.347656 19.195312 3.984375 18.847656 C 3.625 18.472656 3.550781 18.160156 3.539062 17.648438 C 3.605469 17.191406 3.863281 16.796875 4.09375 16.40625 C 4.125 16.347656 4.160156 16.289062 4.191406 16.234375 C 4.261719 16.113281 4.332031 15.996094 4.398438 15.875 C 4.492188 15.714844 4.585938 15.550781 4.679688 15.390625 C 4.824219 15.136719 4.972656 14.886719 5.117188 14.636719 C 5.261719 14.382812 5.410156 14.128906 5.554688 13.875 C 5.613281 13.773438 5.671875 13.671875 5.730469 13.570312 C 5.757812 13.519531 5.789062 13.46875 5.820312 13.417969 C 5.90625 13.265625 5.992188 13.113281 6.082031 12.960938 C 6.109375 12.910156 6.140625 12.859375 6.171875 12.808594 C 6.226562 12.707031 6.285156 12.605469 6.34375 12.503906 C 6.492188 12.25 6.640625 11.992188 6.785156 11.738281 C 7.070312 11.25 7.351562 10.757812 7.636719 10.273438 C 7.875 9.863281 8.109375 9.457031 8.34375 9.046875 C 8.601562 8.589844 8.867188 8.136719 9.128906 7.683594 C 9.328125 7.34375 9.527344 7.003906 9.722656 6.664062 C 9.753906 6.613281 9.78125 6.5625 9.8125 6.511719 C 9.949219 6.273438 10.085938 6.035156 10.21875 5.796875 C 10.265625 5.710938 10.3125 5.628906 10.363281 5.542969 C 10.421875 5.4375 10.480469 5.332031 10.539062 5.226562 C 10.828125 4.71875 11.140625 4.398438 11.710938 4.226562 C 12.230469 4.203125 12.65625 4.277344 13.046875 4.632812 Z M 13.046875 4.632812 "/>
<path style=" stroke:none;fill-rule:nonzero;fill:rgb(99.607843%,70.588237%,0%);fill-opacity:1;" d="M 12.582031 8.851562 C 12.757812 8.980469 12.847656 9.113281 12.890625 9.328125 C 12.894531 9.46875 12.898438 9.605469 12.902344 9.742188 C 12.902344 9.804688 12.902344 9.804688 12.902344 9.871094 C 12.902344 10.007812 12.902344 10.148438 12.90625 10.285156 C 12.90625 10.335938 12.90625 10.382812 12.90625 10.429688 C 12.90625 10.683594 12.910156 10.933594 12.910156 11.183594 C 12.910156 11.390625 12.910156 11.597656 12.914062 11.808594 C 12.917969 12.058594 12.917969 12.308594 12.917969 12.558594 C 12.917969 12.65625 12.921875 12.75 12.921875 12.847656 C 12.921875 12.980469 12.921875 13.113281 12.921875 13.246094 C 12.925781 13.285156 12.925781 13.324219 12.925781 13.367188 C 12.921875 13.667969 12.816406 13.84375 12.609375 14.0625 C 12.421875 14.214844 12.242188 14.230469 12.007812 14.230469 C 11.976562 14.230469 11.941406 14.230469 11.90625 14.230469 C 11.660156 14.21875 11.503906 14.171875 11.320312 14.007812 C 11.113281 13.753906 11.089844 13.574219 11.089844 13.257812 C 11.089844 13.214844 11.089844 13.171875 11.085938 13.128906 C 11.085938 12.988281 11.085938 12.84375 11.085938 12.703125 C 11.085938 12.605469 11.085938 12.507812 11.085938 12.40625 C 11.082031 12.203125 11.082031 11.996094 11.082031 11.789062 C 11.082031 11.523438 11.082031 11.257812 11.078125 10.996094 C 11.078125 10.792969 11.078125 10.585938 11.078125 10.382812 C 11.078125 10.285156 11.078125 10.1875 11.074219 10.089844 C 11.074219 9.953125 11.074219 9.820312 11.074219 9.683594 C 11.074219 9.640625 11.074219 9.601562 11.074219 9.5625 C 11.078125 9.257812 11.179688 9.074219 11.390625 8.859375 C 11.742188 8.632812 12.21875 8.636719 12.582031 8.851562 Z M 12.582031 8.851562 "/>
<path style=" stroke:none;fill-rule:nonzero;fill:rgb(99.607843%,70.588237%,0%);fill-opacity:1;" d="M 12.386719 15.550781 C 12.625 15.675781 12.789062 15.878906 12.890625 16.125 C 12.921875 16.382812 12.925781 16.613281 12.8125 16.847656 C 12.621094 17.054688 12.417969 17.269531 12.125 17.3125 C 11.847656 17.316406 11.652344 17.289062 11.4375 17.109375 C 11.21875 16.886719 11.101562 16.738281 11.09375 16.421875 C 11.09375 16.136719 11.152344 15.960938 11.34375 15.75 C 11.367188 15.726562 11.386719 15.699219 11.410156 15.675781 C 11.671875 15.441406 12.066406 15.445312 12.386719 15.550781 Z M 12.386719 15.550781 "/>
</g>
</svg>
