<?xml version="1.0" encoding="UTF-8"?>
<svg xmlns="http://www.w3.org/2000/svg" xmlns:xlink="http://www.w3.org/1999/xlink" width="24px" height="24px" viewBox="0 0 24 24" version="1.1">
<g id="surface1">
<path style=" stroke:none;fill-rule:nonzero;fill:rgb(99.607843%,99.607843%,99.607843%);fill-opacity:1;" d="M 18.808594 4.613281 C 20.71875 6.351562 21.902344 8.855469 22.03125 11.4375 C 22.152344 14.234375 21.191406 16.828125 19.3125 18.890625 C 17.5 20.832031 14.945312 21.953125 12.296875 22.042969 C 9.523438 22.101562 6.949219 21.070312 4.945312 19.160156 C 3.066406 17.328125 2.011719 14.773438 1.957031 12.160156 C 1.929688 9.394531 2.996094 6.84375 4.917969 4.867188 C 8.125 1.632812 13.316406 1.066406 18.808594 4.613281 Z M 18.808594 4.613281 "/>
<path style=" stroke:none;fill-rule:nonzero;fill:rgb(12.941177%,58.823532%,95.294118%);fill-opacity:1;" d="M 11.375 9.855469 C 11.480469 9.855469 11.585938 9.855469 11.695312 9.851562 C 12.101562 9.851562 12.429688 9.894531 12.75 10.171875 C 12.921875 10.363281 12.992188 10.554688 12.988281 10.8125 C 12.988281 10.855469 12.988281 10.902344 12.988281 10.949219 C 12.988281 11.019531 12.988281 11.019531 12.988281 11.097656 C 12.988281 11.148438 12.988281 11.199219 12.988281 11.253906 C 12.988281 11.421875 12.988281 11.59375 12.988281 11.765625 C 12.988281 11.882812 12.988281 12.003906 12.988281 12.121094 C 12.988281 12.402344 12.988281 12.683594 12.988281 12.964844 C 12.988281 13.28125 12.988281 13.601562 12.988281 13.921875 C 12.984375 14.578125 12.984375 15.234375 12.984375 15.890625 C 13.027344 15.894531 13.027344 15.894531 13.074219 15.898438 C 13.109375 15.902344 13.148438 15.90625 13.1875 15.910156 C 13.226562 15.914062 13.261719 15.917969 13.300781 15.921875 C 13.566406 15.960938 13.734375 16.164062 13.898438 16.359375 C 14.027344 16.617188 14.007812 16.925781 13.96875 17.203125 C 13.863281 17.484375 13.664062 17.6875 13.390625 17.816406 C 13.257812 17.863281 13.152344 17.871094 13.007812 17.875 C 12.957031 17.875 12.90625 17.875 12.855469 17.875 C 12.800781 17.875 12.746094 17.875 12.691406 17.875 C 12.636719 17.878906 12.578125 17.878906 12.523438 17.878906 C 12.402344 17.878906 12.285156 17.878906 12.167969 17.878906 C 11.988281 17.878906 11.804688 17.882812 11.625 17.882812 C 11.511719 17.886719 11.394531 17.886719 11.28125 17.886719 C 11.226562 17.886719 11.171875 17.886719 11.117188 17.886719 C 10.789062 17.886719 10.566406 17.84375 10.3125 17.625 C 10.042969 17.332031 10.007812 17.105469 10.015625 16.710938 C 10.042969 16.425781 10.148438 16.273438 10.363281 16.085938 C 10.609375 15.90625 10.679688 15.890625 11.015625 15.890625 C 11.015625 14.558594 11.015625 13.230469 11.015625 11.859375 C 10.90625 11.859375 10.800781 11.859375 10.6875 11.859375 C 10.414062 11.75 10.226562 11.558594 10.074219 11.308594 C 9.96875 11.046875 9.984375 10.695312 10.070312 10.429688 C 10.359375 9.914062 10.832031 9.84375 11.375 9.855469 Z M 11.375 9.855469 "/>
<path style=" stroke:none;fill-rule:nonzero;fill:rgb(12.941177%,58.823532%,95.294118%);fill-opacity:1;" d="M 12.539062 6.21875 C 12.59375 6.253906 12.648438 6.289062 12.703125 6.328125 C 12.777344 6.375 12.777344 6.375 12.851562 6.421875 C 13.078125 6.625 13.230469 6.945312 13.289062 7.242188 C 13.300781 7.609375 13.167969 7.96875 12.9375 8.257812 C 12.667969 8.511719 12.34375 8.640625 11.972656 8.660156 C 11.613281 8.640625 11.324219 8.507812 11.066406 8.257812 C 10.832031 7.96875 10.695312 7.613281 10.710938 7.238281 C 10.789062 6.835938 11.003906 6.53125 11.332031 6.296875 C 11.6875 6.089844 12.160156 6.039062 12.539062 6.21875 Z M 12.539062 6.21875 "/>
</g>
</svg>
