<?xml version="1.0" encoding="UTF-8"?>
<svg xmlns="http://www.w3.org/2000/svg" xmlns:xlink="http://www.w3.org/1999/xlink" width="24px" height="24px" viewBox="0 0 24 24" version="1.1">
<g id="surface1">
<path style=" stroke:none;fill-rule:nonzero;fill:rgb(100%,100%,100%);fill-opacity:1;" d="M 12.007812 0.00390625 C 12.054688 0.00390625 12.105469 0.00390625 12.152344 0.00390625 C 12.835938 0.0078125 13.503906 0.0195312 14.175781 0.160156 C 14.21875 0.167969 14.265625 0.175781 14.3125 0.1875 C 16.136719 0.570312 17.839844 1.296875 19.3125 2.449219 C 19.355469 2.480469 19.394531 2.511719 19.4375 2.542969 C 20.164062 3.109375 20.851562 3.773438 21.414062 4.503906 C 21.449219 4.546875 21.484375 4.59375 21.523438 4.636719 C 23.136719 6.664062 24.003906 9.242188 23.996094 11.824219 C 23.996094 11.960938 24 12.097656 24 12.234375 C 24 12.859375 23.945312 13.460938 23.84375 14.078125 C 23.828125 14.15625 23.828125 14.15625 23.816406 14.238281 C 23.488281 16.066406 22.695312 17.800781 21.554688 19.261719 C 21.519531 19.308594 21.484375 19.351562 21.445312 19.398438 C 20.871094 20.117188 20.226562 20.796875 19.5 21.363281 C 19.457031 21.398438 19.410156 21.433594 19.367188 21.472656 C 17.875 22.667969 16.042969 23.4375 14.175781 23.792969 C 14.136719 23.800781 14.097656 23.808594 14.058594 23.816406 C 12.65625 24.089844 11.039062 24.039062 9.644531 23.746094 C 9.574219 23.730469 9.574219 23.730469 9.5 23.714844 C 7.765625 23.347656 6.136719 22.59375 4.738281 21.503906 C 4.695312 21.46875 4.648438 21.433594 4.601562 21.394531 C 3.882812 20.820312 3.203125 20.175781 2.636719 19.449219 C 2.585938 19.382812 2.585938 19.382812 2.53125 19.316406 C 1.335938 17.824219 0.5625 15.996094 0.210938 14.125 C 0.203125 14.085938 0.195312 14.046875 0.1875 14.007812 C -0.0703125 12.703125 -0.0625 11.128906 0.210938 9.828125 C 0.21875 9.78125 0.226562 9.734375 0.238281 9.6875 C 0.707031 7.4375 1.738281 5.355469 3.347656 3.699219 C 3.433594 3.617188 3.515625 3.53125 3.597656 3.445312 C 3.929688 3.101562 4.273438 2.792969 4.65625 2.507812 C 4.742188 2.445312 4.824219 2.382812 4.910156 2.316406 C 5.300781 2.019531 5.710938 1.761719 6.140625 1.519531 C 6.226562 1.472656 6.3125 1.421875 6.398438 1.371094 C 8.109375 0.410156 10.0625 -0.00390625 12.007812 0.00390625 Z M 12.007812 0.00390625 "/>
<path style=" stroke:none;fill-rule:nonzero;fill:rgb(95.686275%,26.274511%,21.176471%);fill-opacity:1;" d="M 8.300781 7.289062 C 8.375 7.285156 8.375 7.285156 8.453125 7.285156 C 8.8125 7.332031 9.058594 7.535156 9.308594 7.789062 C 9.335938 7.816406 9.367188 7.847656 9.394531 7.875 C 9.492188 7.972656 9.585938 8.066406 9.679688 8.164062 C 9.746094 8.230469 9.8125 8.296875 9.878906 8.363281 C 10.054688 8.539062 10.226562 8.714844 10.402344 8.890625 C 10.578125 9.070312 10.757812 9.25 10.933594 9.425781 C 11.285156 9.777344 11.632812 10.128906 11.980469 10.480469 C 12.175781 10.40625 12.304688 10.261719 12.449219 10.113281 C 12.488281 10.070312 12.488281 10.070312 12.53125 10.03125 C 12.59375 9.96875 12.652344 9.90625 12.710938 9.847656 C 12.808594 9.75 12.902344 9.65625 13 9.558594 C 13.269531 9.285156 13.539062 9.011719 13.808594 8.738281 C 13.976562 8.570312 14.140625 8.402344 14.308594 8.234375 C 14.371094 8.171875 14.433594 8.109375 14.496094 8.046875 C 14.585938 7.957031 14.671875 7.867188 14.761719 7.777344 C 14.789062 7.75 14.8125 7.726562 14.839844 7.699219 C 15.042969 7.496094 15.25 7.328125 15.539062 7.28125 C 15.894531 7.285156 16.175781 7.304688 16.441406 7.558594 C 16.636719 7.785156 16.710938 7.953125 16.714844 8.25 C 16.714844 8.300781 16.71875 8.351562 16.71875 8.402344 C 16.671875 8.761719 16.46875 9.007812 16.214844 9.257812 C 16.183594 9.285156 16.15625 9.316406 16.125 9.34375 C 16.03125 9.441406 15.933594 9.535156 15.835938 9.628906 C 15.769531 9.695312 15.703125 9.761719 15.636719 9.828125 C 15.460938 10.003906 15.285156 10.175781 15.113281 10.351562 C 14.933594 10.527344 14.753906 10.707031 14.574219 10.882812 C 14.222656 11.234375 13.871094 11.582031 13.519531 11.929688 C 13.597656 12.125 13.742188 12.253906 13.886719 12.398438 C 13.929688 12.4375 13.929688 12.4375 13.972656 12.480469 C 14.03125 12.542969 14.09375 12.601562 14.15625 12.660156 C 14.25 12.757812 14.347656 12.851562 14.441406 12.949219 C 14.714844 13.21875 14.988281 13.488281 15.265625 13.757812 C 15.429688 13.925781 15.597656 14.089844 15.765625 14.257812 C 15.828125 14.320312 15.894531 14.382812 15.957031 14.445312 C 16.046875 14.535156 16.136719 14.621094 16.222656 14.710938 C 16.25 14.738281 16.277344 14.761719 16.304688 14.789062 C 16.507812 14.992188 16.675781 15.199219 16.722656 15.488281 C 16.71875 15.847656 16.695312 16.121094 16.441406 16.390625 C 16.21875 16.59375 16.003906 16.660156 15.703125 16.667969 C 15.65625 16.671875 15.605469 16.675781 15.554688 16.675781 C 15.039062 16.582031 14.648438 16.0625 14.292969 15.703125 C 14.230469 15.640625 14.164062 15.574219 14.101562 15.511719 C 13.933594 15.34375 13.765625 15.171875 13.597656 15.003906 C 13.425781 14.832031 13.253906 14.660156 13.082031 14.484375 C 12.746094 14.148438 12.410156 13.808594 12.074219 13.46875 C 11.878906 13.546875 11.75 13.691406 11.605469 13.835938 C 11.578125 13.863281 11.550781 13.894531 11.519531 13.921875 C 11.460938 13.980469 11.402344 14.042969 11.339844 14.105469 C 11.246094 14.199219 11.152344 14.296875 11.054688 14.390625 C 10.785156 14.664062 10.515625 14.9375 10.246094 15.214844 C 10.082031 15.378906 9.914062 15.546875 9.75 15.714844 C 9.6875 15.777344 9.621094 15.84375 9.558594 15.90625 C 9.472656 15.996094 9.382812 16.085938 9.296875 16.171875 C 9.269531 16.199219 9.246094 16.226562 9.21875 16.253906 C 8.960938 16.507812 8.683594 16.671875 8.3125 16.671875 C 7.960938 16.660156 7.765625 16.546875 7.523438 16.296875 C 7.386719 16.085938 7.339844 15.90625 7.332031 15.652344 C 7.328125 15.578125 7.328125 15.578125 7.324219 15.503906 C 7.421875 14.988281 7.9375 14.597656 8.296875 14.242188 C 8.359375 14.179688 8.425781 14.113281 8.488281 14.050781 C 8.660156 13.882812 8.828125 13.714844 8.996094 13.546875 C 9.171875 13.375 9.34375 13.203125 9.515625 13.03125 C 9.855469 12.695312 10.191406 12.359375 10.53125 12.023438 C 10.457031 11.828125 10.3125 11.699219 10.164062 11.554688 C 10.136719 11.527344 10.109375 11.5 10.078125 11.46875 C 10.019531 11.410156 9.957031 11.351562 9.898438 11.289062 C 9.800781 11.195312 9.707031 11.101562 9.609375 11.003906 C 9.335938 10.734375 9.0625 10.464844 8.789062 10.195312 C 8.621094 10.03125 8.453125 9.863281 8.285156 9.699219 C 8.222656 9.636719 8.160156 9.574219 8.09375 9.507812 C 8.007812 9.421875 7.917969 9.332031 7.828125 9.246094 C 7.789062 9.207031 7.789062 9.207031 7.75 9.167969 C 7.492188 8.910156 7.328125 8.632812 7.328125 8.261719 C 7.339844 7.980469 7.398438 7.796875 7.589844 7.585938 C 7.816406 7.375 7.992188 7.292969 8.300781 7.289062 Z M 8.300781 7.289062 "/>
</g>
</svg>
